<?xml version="1.0" encoding="utf-8"?>
<!-- Generator: Adobe Illustrator 25.1.0, SVG Export Plug-In . SVG Version: 6.00 Build 0)  -->
<svg version="1.1" id="Layer_1" xmlns="http://www.w3.org/2000/svg" xmlns:xlink="http://www.w3.org/1999/xlink" x="0px" y="0px"
	 viewBox="0 0 120 120" style="enable-background:new 0 0 120 120;" xml:space="preserve">
<style type="text/css">
	.st0{fill:#EA8C8C;}
	.st1{fill:#A33131;}
</style>
<g>
	<path class="st0" d="M66.6,11.8L75,26.4c1.4,2.4,3.9,3.8,6.6,3.8h16.8c5.9,0,9.5,6.4,6.6,11.4l-8.4,14.5c-1.4,2.4-1.4,5.3,0,7.6
		l8.4,14.5c2.9,5.1-0.7,11.4-6.6,11.4H81.6c-2.7,0-5.2,1.5-6.6,3.8l-8.4,14.5c-2.9,5.1-10.3,5.1-13.2,0L45,93.6
		c-1.4-2.4-3.9-3.8-6.6-3.8H21.6c-5.9,0-9.5-6.4-6.6-11.4l8.4-14.5c1.4-2.4,1.4-5.3,0-7.6L15,41.6c-2.9-5.1,0.7-11.4,6.6-11.4h16.8
		c2.7,0,5.2-1.5,6.6-3.8l8.4-14.5C56.3,6.8,63.7,6.8,66.6,11.8z"/>
	<path class="st1" d="M44.7,54.3c0,2.9,2.1,5,4.6,4.5c2.1-0.3,3.7-2.9,3.3-5.2c-0.4-2.4-1.8-3.9-3.7-4
		C46.5,49.5,44.7,51.5,44.7,54.3z"/>
	<path class="st1" d="M54.5,49.6c0.8,0,1.5-0.2,1.7-0.7c0.3-0.6,0.3-1.1-0.3-1.6c-0.4-0.4-1-0.6-1.6-0.9c-3-1.6-6-3.2-8.9-5
		c-0.9-0.5-2-0.5-2.6,0.2c-0.7,0.7-0.5,1.7,0.4,2.2c3.3,1.9,6.7,3.8,10.2,5.5C53.8,49.5,54.2,49.6,54.5,49.6z"/>
	<path class="st1" d="M75.3,54.3c0,2.9-2.1,5-4.6,4.5c-2.1-0.3-3.7-2.9-3.3-5.2c0.4-2.4,1.8-3.9,3.7-4
		C73.5,49.5,75.3,51.5,75.3,54.3z"/>
	<path class="st1" d="M65.5,49.6c-0.8,0-1.5-0.2-1.7-0.7c-0.3-0.6-0.3-1.1,0.3-1.6c0.4-0.4,1-0.6,1.6-0.9c3-1.6,6-3.2,8.9-5
		c0.9-0.5,2-0.5,2.6,0.2c0.7,0.7,0.5,1.7-0.4,2.2c-3.3,1.9-6.7,3.8-10.2,5.5C66.2,49.5,65.8,49.6,65.5,49.6z"/>
	<path class="st1" d="M53.8,70.8c0-5.1,2.8-9.3,6.2-9.3s6.2,4.2,6.2,9.3H53.8z"/>
</g>
</svg>
