<?xml version="1.0" encoding="utf-8"?>
<!-- Generator: Adobe Illustrator 25.1.0, SVG Export Plug-In . SVG Version: 6.00 Build 0)  -->
<svg version="1.1" id="Layer_1" xmlns="http://www.w3.org/2000/svg" xmlns:xlink="http://www.w3.org/1999/xlink" x="0px" y="0px"
	 viewBox="0 0 120 120" style="enable-background:new 0 0 120 120;" xml:space="preserve">
<style type="text/css">
	.st0{fill:#EFCF7F;}
	.st1{fill:#C47D1E;}
</style>
<circle class="st0" cx="60.3" cy="59.5" r="55.1"/>
<circle class="st1" cx="42.3" cy="47.7" r="5.6"/>
<circle class="st1" cx="78.4" cy="47.7" r="5.6"/>
<g>
	<path class="st1" d="M60.3,77.5c-8.4,0-18-4.2-20.3-12.5c-0.3-1.2,0.4-2.5,1.6-2.8c1.2-0.3,2.5,0.4,2.8,1.6
		c1.7,6.1,9.6,9.4,16.2,9.2c6.5-0.1,14.1-3.4,15.5-9.1c0.3-1.2,1.6-2,2.8-1.7c1.2,0.3,2,1.5,1.7,2.8c-1.9,8.1-11.5,12.4-19.8,12.6
		C60.6,77.5,60.5,77.5,60.3,77.5z"/>
</g>
</svg>
