<?xml version="1.0" encoding="utf-8"?>
<!-- Generator: Adobe Illustrator 25.1.0, SVG Export Plug-In . SVG Version: 6.00 Build 0)  -->
<svg version="1.1" id="Layer_1" xmlns="http://www.w3.org/2000/svg" xmlns:xlink="http://www.w3.org/1999/xlink" x="0px" y="0px"
	 viewBox="0 0 120 120" style="enable-background:new 0 0 120 120;" xml:space="preserve">
<style type="text/css">
	.st0{fill:#9CE2C7;}
	.st1{fill:#2FA877;}
</style>
<g>
	<path class="st0" d="M95.5,113.7h-71c-10.1,0-18.2-8.2-18.2-18.2v-71c0-10.1,8.2-18.2,18.2-18.2h71c10.1,0,18.2,8.2,18.2,18.2v71
		C113.7,105.6,105.6,113.7,95.5,113.7z"/>
	<g>
		<path class="st1" d="M50.2,58.5c0,4.7,4.4,8.5,9.8,8.5s9.8-3.8,9.8-8.5H50.2z"/>
	</g>
	<g>
		<path class="st1" d="M36.2,60.5c-0.7,0-1.3-0.3-1.7-1c-0.6-0.9-0.3-2.1,0.7-2.7l11-6.6l-11-6.1c-1-0.5-1.3-1.7-0.8-2.7
			c0.5-1,1.7-1.3,2.7-0.8l14,7.8c0.6,0.3,1,1,1,1.7c0,0.7-0.4,1.4-1,1.7l-14,8.3C36.9,60.4,36.5,60.5,36.2,60.5z"/>
	</g>
	<g>
		<path class="st1" d="M83.8,60.5c-0.3,0-0.7-0.1-1-0.3l-14-8.3c-0.6-0.4-1-1-1-1.7c0-0.7,0.4-1.4,1-1.7l14-7.8
			c1-0.5,2.2-0.2,2.7,0.8c0.5,1,0.2,2.2-0.8,2.7l-11,6.1l11,6.6c0.9,0.6,1.2,1.8,0.7,2.7C85.1,60.1,84.5,60.5,83.8,60.5z"/>
	</g>
</g>
</svg>
