<?xml version="1.0" encoding="utf-8"?>
<!-- Generator: Adobe Illustrator 25.1.0, SVG Export Plug-In . SVG Version: 6.00 Build 0)  -->
<svg version="1.1" id="Layer_1" xmlns="http://www.w3.org/2000/svg" xmlns:xlink="http://www.w3.org/1999/xlink" x="0px" y="0px"
	 viewBox="0 0 120 120" style="enable-background:new 0 0 120 120;" xml:space="preserve">
<style type="text/css">
	.st0{fill:#B798E2;}
	.st1{fill:#5928A5;}
</style>
<g>
	<path class="st0" d="M100.5,109h-81C7.8,109,0.6,96.3,6.6,86.2l40.5-67.9c5.8-9.8,20-9.8,25.8,0l40.5,67.9
		C119.4,96.3,112.2,109,100.5,109z"/>
	<path class="st1" d="M77.2,90.2c0,0.9-0.5,1.6-1.3,1.9c-1,0.3-1.8,0.1-2.5-0.6c-0.5-0.5-0.8-1-1.3-1.5c-1.6-1.6-3.6-1.9-5.5-0.8
		c-1.3,0.7-2.6,1.5-4.1,1.8c-2.3,0.5-4.5-0.1-6.4-1.4c-2.5-1.8-5.5-1.3-7.6,1.2c-0.2,0.3-0.4,0.6-0.7,0.8c-0.9,0.8-2.3,0.9-3.1,0.2
		c-0.8-0.7-1-1.9-0.3-2.9c2.6-3.7,7.5-6.2,12.4-3.8c0.6,0.3,1.3,0.6,1.9,1c1.7,1.1,3.3,1,4.9-0.1c4.6-3.1,9.6-1.5,12.5,1.9
		C76.8,88.7,77.2,89.4,77.2,90.2z"/>
	<path class="st1" d="M45.8,65.5c1.1,0,2.2,0,3.3,0c0.7,0,1.3,0.3,1.5,0.9c0.7,2.2,0.5,4.3-0.9,6.1c-1.3,1.8-3.1,2.5-5.3,2
		c-3.2-0.7-5.3-5.4-3.7-8.2c0.3-0.6,0.9-0.8,1.5-0.8C43.5,65.5,44.6,65.5,45.8,65.5C45.8,65.5,45.8,65.5,45.8,65.5z"/>
	<path class="st1" d="M74.3,65.5c1,0,2,0,3,0c1-0.1,1.5,0.4,1.7,1.2c0.6,2.2,0.4,4.3-1.1,6.1c-2.1,2.5-5.8,2.4-7.7-0.2
		c-1.4-1.9-1.6-4-0.9-6.2c0.3-0.8,0.9-0.9,1.5-0.9C72.1,65.5,73.2,65.5,74.3,65.5C74.3,65.5,74.3,65.5,74.3,65.5z"/>
	<path class="st1" d="M81.4,60.9c-5.5-0.8-10.3-3-13.9-7.5c-0.8-1.1-0.7-2.4,0.3-3.2c1-0.8,2.3-0.7,3.1,0.4c2.7,3.7,6.7,5.1,10.9,6
		c1.6,0.3,2.5,1.3,2.4,2.5C84.1,60.3,83.1,61,81.4,60.9z"/>
	<path class="st1" d="M38.9,61c-2.3-0.1-3.1-0.6-3.2-1.8c-0.1-1.3,0.7-2.2,2.3-2.5c2.6-0.5,5.1-1.2,7.4-2.6c1.3-0.9,2.4-2,3.3-3.2
		c0.9-1.2,2.2-1.4,3.2-0.7c0.9,0.7,1.1,2.1,0.3,3.2C48.7,58.1,43.9,60.3,38.9,61z"/>
</g>
</svg>
