<?xml version="1.0" encoding="utf-8"?>
<!-- Generator: Adobe Illustrator 25.1.0, SVG Export Plug-In . SVG Version: 6.00 Build 0)  -->
<svg version="1.1" id="Layer_1" xmlns="http://www.w3.org/2000/svg" xmlns:xlink="http://www.w3.org/1999/xlink" x="0px" y="0px"
	 viewBox="0 0 120 120" style="enable-background:new 0 0 120 120;" xml:space="preserve">
<style type="text/css">
	.st0{fill-rule:evenodd;clip-rule:evenodd;fill:#A9D8EA;}
	.st1{fill-rule:evenodd;clip-rule:evenodd;fill:#26889E;}
</style>
<g>
	<path class="st0" d="M101.5,35.3c-0.2-9.9-6.8-16.6-16.8-16.8c-4.9-0.1-9.4-2-12.9-5.3c-7.1-6.9-16.6-6.9-23.7,0
		c-3.5,3.4-8,5.2-12.9,5.3c-9.9,0.2-16.6,6.8-16.8,16.8c-0.1,4.9-2,9.4-5.3,12.9c-6.9,7.1-6.9,16.6,0,23.7c3.4,3.5,5.2,8,5.3,12.9
		c0.2,9.9,6.8,16.6,16.8,16.8c4.9,0.1,9.4,2,12.9,5.3c7.1,6.9,16.6,6.9,23.7,0c3.5-3.4,8-5.2,12.9-5.3c9.9-0.2,16.6-6.8,16.8-16.8
		c0.1-4.9,2-9.4,5.3-12.9c6.9-7.1,6.9-16.6,0-23.7C103.4,44.7,101.6,40.1,101.5,35.3z"/>
	<path class="st1" d="M60.2,72.6c-2.8,0-5.5,0-8.3,0c-1.1,0-2.1-0.4-2.6-1.6c-0.4-1,0.1-1.7,0.7-2.5c0.4-0.5,0.8-0.4,1.1-0.4
		c5.9,0,11.8,0,17.7,0c1.3,0,2.2,0.9,2.3,2.1c0.1,1.2-0.8,2.3-2.2,2.4c-2.1,0.1-4.2,0-6.3,0.1C61.8,72.6,61,72.6,60.2,72.6z"/>
	<path class="st1" d="M74.9,52.8c-2.3,0-4.6,0-7,0c-1.5,0-2.4-0.7-2.4-2c0-1.3,0.8-2.3,2.4-2.3c4.9,0,9.7,0,14.6,0
		c1.3,0,2.4,1.1,2.3,2.2c0,1.2-0.9,2.1-2.4,2.1C79.9,52.8,77.4,52.8,74.9,52.8C74.9,52.8,74.9,52.8,74.9,52.8z"/>
	<path class="st1" d="M44.8,52.8c-2.4,0-4.8,0-7.2,0c-1.3,0-2.3-0.9-2.4-2c-0.1-1.1,0.8-2,2-2.3c0.3-0.1,0.7,0,1.1,0
		c4.5,0,8.9,0,13.4,0c0.3,0,0.6,0,0.9,0c1.3,0.2,2,1.2,1.9,2.5c-0.1,1.1-1,1.8-2.2,1.8C49.8,52.8,47.3,52.8,44.8,52.8
		C44.8,52.8,44.8,52.8,44.8,52.8z"/>
	<path class="st1" d="M45.3,50.7c0.7,0,1.4,0,2.1,0c1.7,0,1.9,0.2,2.2,1.9c0.4,2.9-1.1,5.5-3.4,6c-2.9,0.6-5.4-1.8-5.3-5.1
		c0-0.6,0.1-1.2,0.2-1.9c0.1-0.6,0.5-1,1.2-1C43.3,50.7,44.3,50.7,45.3,50.7C45.3,50.7,45.3,50.7,45.3,50.7z"/>
	<path class="st1" d="M75,50.7c0.8,0,1.6,0.1,2.4,0c1.1-0.1,1.6,0.3,1.7,1.3c0.2,1.8,0.3,3.7-1.1,5.2c-1.3,1.4-2.8,1.9-4.6,1.2
		c-1.8-0.7-2.6-2.2-2.9-4c-0.4-3.1,0.2-3.7,3.3-3.7C74.2,50.7,74.6,50.7,75,50.7C75,50.7,75,50.7,75,50.7z"/>
</g>
</svg>
